HIERARCHY
ROOT Hips
{
	OFFSET 47.195301 1.889466 84.018303
	CHANNELS 6 Xposition Yposition Zposition Xrotation Yrotation Zrotation
	JOINT spine
	{
		OFFSET 0.000000 -0.359108 6.244789
		CHANNELS 3 Xrotation Yrotation Zrotation
		JOINT spine1
		{
			OFFSET 0.000000 -0.000002 9.069412
			CHANNELS 3 Xrotation Yrotation Zrotation
			JOINT spine2
			{
				OFFSET 0.000000 -0.000001 8.690140
				CHANNELS 3 Xrotation Yrotation Zrotation
				JOINT Neck
				{
					OFFSET 0.000000 -1.063724 22.311203
					CHANNELS 3 Xrotation Yrotation Zrotation
					JOINT Head
					{
						OFFSET 0.000000 -0.000001 6.740814
						CHANNELS 3 Xrotation Yrotation Zrotation
						End Site
						{
							OFFSET 0.000000 5.380968 16.316498
						}
					}
				}
				JOINT RightShoulder
				{
					OFFSET -3.659161 0.509513 9.384682
					CHANNELS 3 Xrotation Yrotation Zrotation
					JOINT RightArm
					{
						OFFSET 0.000000 -0.000002 12.308907
						CHANNELS 3 Xrotation Yrotation Zrotation
						JOINT RightArmRoll
						{
							OFFSET 0.000000 -0.000001 6.213745
							CHANNELS 3 Xrotation Yrotation Zrotation
							JOINT RightForeArm
							{
								OFFSET 0.000000 -0.000003 18.098495
								CHANNELS 3 Xrotation Yrotation Zrotation
								JOINT RightForeArmRoll
								{
									OFFSET 0.000000 -0.000001 6.972794
									CHANNELS 3 Xrotation Yrotation Zrotation
									JOINT RightHand
									{
										OFFSET 0.000000 -0.000002 13.992905
										CHANNELS 3 Xrotation Yrotation Zrotation
										End Site
										{
											OFFSET 0.000000 0.000000 0.100006
										}
									}
								}
							}
						}
					}
				}
				JOINT LeftShoulder
				{
					OFFSET 3.659161 0.509513 9.384682
					CHANNELS 3 Xrotation Yrotation Zrotation
					JOINT LeftArm
					{
						OFFSET 0.000000 -0.000002 12.308907
						CHANNELS 3 Xrotation Yrotation Zrotation
						JOINT LeftArmRoll
						{
							OFFSET 0.000000 -0.000001 6.213745
							CHANNELS 3 Xrotation Yrotation Zrotation
							JOINT LeftForeArm
							{
								OFFSET 0.000000 -0.000003 18.098495
								CHANNELS 3 Xrotation Yrotation Zrotation
								JOINT LeftForeArmRoll
								{
									OFFSET 0.000000 -0.000001 6.972794
									CHANNELS 3 Xrotation Yrotation Zrotation
									JOINT LeftHand
									{
										OFFSET 0.000000 -0.000002 13.992905
										CHANNELS 3 Xrotation Yrotation Zrotation
										End Site
										{
											OFFSET 0.000000 0.000000 0.100006
										}
									}
								}
							}
						}
					}
				}
			}
		}
	}
	JOINT RightUpLeg
	{
		OFFSET -5.535149 0.851454 -1.014999
		CHANNELS 3 Xrotation Yrotation Zrotation
		JOINT RightUpLegRoll
		{
			OFFSET 0.000000 -0.000003 16.407501
			CHANNELS 3 Xrotation Yrotation Zrotation
			JOINT RightLeg
			{
				OFFSET 0.000000 0.000003 -20.318100
				CHANNELS 3 Xrotation Yrotation Zrotation
				JOINT RightLegRoll
				{
					OFFSET 0.000000 -0.000003 20.384598
					CHANNELS 3 Xrotation Yrotation Zrotation
					JOINT RightFoot
					{
						OFFSET 0.000000 -0.000003 16.966805
						CHANNELS 3 Xrotation Yrotation Zrotation
						JOINT RightToeBase
						{
							OFFSET 0.000000 -0.000002 14.183395
							CHANNELS 3 Xrotation Yrotation Zrotation
							End Site
							{
								OFFSET 0.006012 0.791745 6.868896
							}
						}
					}
				}
			}
		}
	}
	JOINT LeftUpLeg
	{
		OFFSET 5.535149 0.851454 -1.014999
		CHANNELS 3 Xrotation Yrotation Zrotation
		JOINT LeftUpLegRoll
		{
			OFFSET 0.000000 -0.000003 16.407600
			CHANNELS 3 Xrotation Yrotation Zrotation
			JOINT LeftLeg
			{
				OFFSET 0.000000 -0.000003 20.318100
				CHANNELS 3 Xrotation Yrotation Zrotation
				JOINT LeftLegRoll
				{
					OFFSET 0.000000 -0.000003 20.573105
					CHANNELS 3 Xrotation Yrotation Zrotation
					JOINT LeftFoot
					{
						OFFSET 0.000000 -0.000003 16.778305
						CHANNELS 3 Xrotation Yrotation Zrotation
						JOINT LeftToeBase
						{
							OFFSET 0.000000 -0.000002 14.183395
							CHANNELS 3 Xrotation Yrotation Zrotation
							End Site
							{
								OFFSET -0.026943 0.791745 6.868896
							}
						}
					}
				}
			}
		}
	}
}
MOTION
Frames: 13
Frame Time: 0.041667
47.660801 -1.540323 93.021011 5.247963 -0.999992 -1.886814 -2.237936 0.134654 0.054619 -0.473186 0.267682 0.113162 1.171903 0.269019 0.109947 -4.593681 0.003313 0.177956 8.682290 0.230245 0.141138 -14.121927 -61.906956 -16.741439 -9.981696 -114.753653 4.171921 0.000000 0.000002 0.000000 14.486575 -6.352286 -0.063122 0.000003 0.000001 -3.000002 -5.000180 -7.998712 0.000153 -20.265434 56.979040 23.977582 -7.428166 120.448501 -8.293682 -0.000000 -0.000000 -0.000001 19.810552 1.715245 0.263337 0.000002 -0.000006 2.999981 -5.000343 7.999678 -0.000050 -11.452535 -174.693167 0.078563 -179.999991 0.000006 -0.986001 165.237302 0.361657 -0.890700 -0.000001 -0.000002 -0.017653 66.744301 6.822243 2.450152 25.456967 -7.355615 0.000000 -9.950327 173.514194 -0.895420 -0.000005 -0.000005 -1.017440 -17.623271 -1.404556 0.874095 -0.000001 0.000002 -0.172801 68.595296 -6.797413 -2.391229 25.456947 7.355614 0.000001 
47.689499 -1.538356 93.127998 5.298480 -0.973152 -1.889824 -2.243336 0.133084 0.049661 -0.483976 0.264683 0.103212 1.161103 0.265900 0.100034 -4.704601 -0.045881 0.184967 8.737695 0.223539 0.162180 -14.225381 -61.868516 -16.860940 -9.994256 -114.854494 4.152826 0.000000 0.000002 -0.000003 14.483215 -6.333514 -0.066854 0.000003 0.000002 -3.000001 -5.000178 -7.998712 0.000150 -20.307320 56.856820 24.029138 -7.496111 120.547812 -8.210599 -0.000000 0.000000 0.000001 19.785516 1.684648 0.268165 -0.000000 -0.000005 2.999980 -5.000342 7.999678 -0.000049 -11.483436 -174.737877 0.052356 -179.999991 0.000006 -0.984007 165.330521 0.347301 -0.890087 -0.000001 -0.000002 -0.018785 66.737990 6.822447 2.450187 25.456964 -7.355615 0.000001 -9.994916 173.490439 -0.861113 -0.000005 -0.000004 -1.015870 -17.515680 -1.436413 0.871365 0.000000 0.000002 -0.171306 68.600207 -6.797653 -2.390173 25.456950 7.355614 -0.000000 
47.658699 -1.526153 93.190308 5.351399 -0.944226 -1.892007 -2.249095 0.131359 0.044705 -0.495485 0.261374 0.093267 1.149602 0.262472 0.090129 -4.813309 -0.103165 0.190668 8.788125 0.224168 0.182739 -14.331400 -61.840601 -16.983861 -10.017295 -114.941879 4.121046 0.000000 0.000002 -0.000001 14.481186 -6.318854 -0.069743 0.000002 0.000002 -3.000000 -5.000177 -7.998712 0.000151 -20.349084 56.735031 24.080626 -7.566242 120.641249 -8.119067 -0.000000 0.000000 -0.000000 19.757958 1.661351 0.271805 0.000000 -0.000006 2.999979 -5.000343 7.999679 -0.000048 -11.518924 -174.784596 0.027168 -179.999991 0.000005 -0.981998 165.411745 0.330971 -0.888866 -0.000001 -0.000002 -0.019554 66.730525 6.822664 2.450297 25.456959 -7.355617 -0.000000 -10.051346 173.461014 -0.832019 -0.000005 -0.000005 -1.014350 -17.433867 -1.463078 0.869748 -0.000002 0.000002 -0.170362 68.607543 -6.797920 -2.389272 25.456953 7.355613 -0.000001 
47.684803 -1.521675 93.274506 5.408770 -0.911596 -1.893342 -2.255206 0.128931 0.039670 -0.507704 0.256662 0.083144 1.137382 0.257638 0.080063 -4.926501 -0.165460 0.195882 8.836670 0.229503 0.203294 -14.446455 -61.813547 -17.117419 -10.051061 -115.026997 4.075077 0.000000 0.000002 -0.000002 14.480237 -6.306844 -0.072175 0.000001 0.000001 -3.000003 -5.000177 -7.998712 0.000153 -20.394655 56.611237 24.137081 -7.640096 120.733948 -8.017794 0.000000 -0.000000 -0.000000 19.728658 1.643449 0.274643 0.000002 -0.000006 2.999980 -5.000342 7.999678 -0.000048 -11.561785 -174.834388 0.002522 -179.999991 0.000005 -0.980004 165.479378 0.310747 -0.888511 -0.000002 -0.000002 -0.019954 66.721072 6.822834 2.450419 25.456962 -7.355616 0.000002 -10.125172 173.425087 -0.808848 -0.000005 -0.000004 -1.012830 -17.381522 -1.484704 0.868990 -0.000002 0.000002 -0.170070 68.618061 -6.798229 -2.388385 25.456950 7.355614 0.000000 
47.653702 -1.499364 93.343109 5.469744 -0.875897 -1.894041 -2.261575 0.125909 0.034581 -0.520426 0.250763 0.072896 1.124651 0.251616 0.069886 -5.042842 -0.231858 0.200616 8.882669 0.238798 0.223804 -14.568208 -61.787298 -17.258911 -10.094317 -115.109738 4.016642 0.000000 0.000002 -0.000003 14.480571 -6.297291 -0.074128 0.000001 0.000002 -2.999998 -5.000177 -7.998712 0.000154 -20.443154 56.486607 24.197280 -7.717473 120.824913 -7.907799 -0.000000 0.000000 0.000000 19.698013 1.630544 0.276736 0.000000 -0.000006 2.999983 -5.000342 7.999676 -0.000048 -11.611305 -174.888209 -0.021111 -179.999991 0.000006 -0.977996 165.534211 0.286617 -0.889055 -0.000001 -0.000002 -0.020018 66.709829 6.822979 2.450747 25.456962 -7.355614 0.000000 -10.214035 173.383573 -0.791013 -0.000004 -0.000005 -1.011310 -17.356153 -1.501681 0.868958 -0.000001 0.000002 -0.170365 68.631489 -6.798488 -2.387607 25.456948 7.355613 -0.000001 
47.676800 -1.501643 93.422310 5.533463 -0.837769 -1.894311 -2.268085 0.122399 0.029466 -0.533447 0.243891 0.062578 1.111630 0.244622 0.059652 -5.161032 -0.301451 0.204888 8.925474 0.251311 0.244232 -14.694273 -61.761665 -17.405537 -10.145777 -115.190048 3.947238 0.000000 0.000003 0.000001 14.482173 -6.289998 -0.075650 0.000002 0.000002 -3.000002 -5.000176 -7.998715 0.000150 -20.493025 56.362127 24.259379 -7.798345 120.912120 -7.789961 0.000000 0.000000 -0.000001 19.666411 1.622238 0.278142 0.000001 -0.000005 2.999982 -5.000341 7.999679 -0.000048 -11.666392 -174.945064 -0.043627 -179.999991 0.000006 -0.976002 165.577050 0.260517 -0.890000 -0.000001 -0.000002 -0.019778 66.697125 6.823140 2.450969 25.456967 -7.355614 0.000000 -10.315825 173.336472 -0.777741 -0.000005 -0.000004 -1.009800 -17.355157 -1.514451 0.869537 -0.000001 0.000002 -0.171186 68.647369 -6.798804 -2.386791 25.456960 7.355613 -0.000002 
47.651001 -1.494744 93.462402 5.599114 -0.797851 -1.894326 -2.274655 0.118512 0.024348 -0.546561 0.236263 0.052244 1.098519 0.236869 0.049410 -5.279753 -0.373330 0.208729 8.964446 0.266292 0.264545 -14.822482 -61.736782 -17.554758 -10.204559 -115.266846 3.868085 0.000000 0.000002 -0.000004 14.484842 -6.284758 -0.076804 0.000005 0.000002 -2.999999 -5.000180 -7.998712 0.000152 -20.543630 56.239043 24.322396 -7.881781 120.997539 -7.666022 0.000000 -0.000000 -0.000001 19.634157 1.618165 0.278913 0.000001 -0.000005 2.999979 -5.000340 7.999678 -0.000046 -11.726183 -175.002957 -0.065163 -179.999991 0.000005 -0.973994 165.608865 0.232464 -0.890358 -0.000002 -0.000002 -0.019268 66.683246 6.823233 2.451451 25.456964 -7.355617 0.000001 -10.428320 173.284727 -0.768453 -0.000004 -0.000005 -1.008310 -17.375737 -1.523433 0.870640 -0.000001 0.000002 -0.172468 68.665258 -6.799110 -2.386045 25.456950 7.355613 -0.000000 
47.675499 -1.485943 93.539711 5.665835 -0.756780 -1.894292 -2.281153 0.114352 0.019256 -0.559561 0.228093 0.041949 1.085519 0.228577 0.039214 -5.397696 -0.446587 0.212183 8.998942 0.282996 0.284711 -14.950480 -61.712596 -17.703833 -10.268695 -115.342033 3.781721 0.000000 0.000002 0.000001 14.488669 -6.281383 -0.077590 0.000003 0.000002 -2.999999 -5.000178 -7.998712 0.000154 -20.593225 56.118265 24.384335 -7.968035 121.078190 -7.536450 -0.000000 0.000000 0.000001 19.601939 1.617915 0.279103 -0.000001 -0.000006 2.999982 -5.000343 7.999678 -0.000048 -11.789667 -175.061874 -0.085435 -179.999991 0.000006 -0.972000 165.630407 0.202460 -0.892127 -0.000000 -0.000002 -0.018520 66.668356 6.823352 2.451900 25.456965 -7.355615 -0.000001 -10.549166 173.230277 -0.762749 -0.000004 -0.000004 -1.006830 -17.415306 -1.529049 0.872195 0.000001 0.000002 -0.174151 68.684908 -6.799383 -2.385391 25.456947 7.355615 -0.000001 
47.648800 -1.474044 93.585197 5.732790 -0.715198 -1.894402 -2.287504 0.110029 0.014213 -0.572242 0.219597 0.031749 1.072838 0.219958 0.029116 -5.513530 -0.520313 0.215309 9.028293 0.300676 0.304705 -15.076036 -61.689053 -17.850132 -10.337346 -115.414583 3.689034 0.000000 0.000002 -0.000000 14.493754 -6.279672 -0.078057 0.000003 0.000002 -3.000001 -5.000177 -7.998712 0.000151 -20.640914 56.001182 24.444053 -8.056885 121.153035 -7.402351 -0.000000 0.000000 0.000000 19.570058 1.621119 0.278755 -0.000000 -0.000005 2.999982 -5.000341 7.999679 -0.000049 -11.855948 -175.121816 -0.104171 -179.999991 0.000005 -0.970005 165.642428 0.171477 -0.894106 -0.000001 -0.000002 -0.017568 66.652906 6.823436 2.452378 25.456960 -7.355614 0.000001 -10.676237 173.174078 -0.760066 -0.000005 -0.000004 -1.005380 -17.471342 -1.531719 0.874122 -0.000000 0.000002 -0.176170 68.705836 -6.799664 -2.384656 25.456955 7.355613 -0.000003 
47.665600 -1.470765 93.641502 5.799142 -0.673746 -1.894815 -2.293583 0.105651 0.009248 -0.584400 0.210989 0.021698 1.060677 0.211230 0.019169 -5.625964 -0.593597 0.218182 9.051862 0.318582 0.324502 -15.196903 -61.666322 -17.991038 -10.409329 -115.484360 3.591788 0.000000 0.000002 -0.000000 14.499990 -6.279429 -0.078223 0.000003 0.000002 -2.999999 -5.000177 -7.998712 0.000153 -20.685725 55.888696 24.500206 -8.147681 121.223058 -7.265051 0.000000 -0.000000 -0.000002 19.538806 1.627371 0.277937 -0.000001 -0.000007 2.999980 -5.000344 7.999679 -0.000049 -11.924157 -175.180760 -0.121521 -179.999991 0.000006 -0.967997 165.645843 0.139508 -0.896301 -0.000002 -0.000002 -0.016443 66.636944 6.823490 2.452983 25.456960 -7.355615 0.000001 -10.807321 173.116076 -0.759676 -0.000005 -0.000003 -1.003960 -17.541075 -1.531875 0.876353 -0.000001 0.000002 -0.178462 68.727693 -6.799889 -2.384055 25.456957 7.355613 0.000001 
47.647900 -1.463725 93.671303 5.864041 -0.633065 -1.895722 -2.299301 0.101324 0.004386 -0.595827 0.202483 0.011852 1.049247 0.202606 0.009426 -5.733668 -0.665535 0.220887 9.068998 0.335963 0.344079 -15.310820 -61.644254 -18.123880 -10.483058 -115.552307 3.491691 0.000000 0.000002 -0.000003 14.507363 -6.280452 -0.078132 0.000002 0.000001 -3.000001 -5.000178 -7.998713 0.000152 -20.726282 55.781957 24.551200 -8.240207 121.287234 -7.125542 -0.000000 -0.000000 -0.000001 19.508885 1.636298 0.276688 -0.000002 -0.000007 2.999978 -5.000343 7.999679 -0.000047 -11.993383 -175.238748 -0.137227 -179.999991 0.000005 -0.966003 165.641472 0.106566 -0.898725 -0.000002 -0.000002 -0.015179 66.620968 6.823501 2.453677 25.456967 -7.355614 0.000001 -10.939936 173.059180 -0.761444 -0.000005 -0.000004 -1.002570 -17.621888 -1.529932 0.878823 0.000000 0.000002 -0.180966 68.750075 -6.800098 -2.383518 25.456957 7.355614 -0.000000 
47.653297 -1.460664 93.726402 5.926649 -0.593798 -1.897290 -2.304552 0.097158 -0.000348 -0.606320 0.194293 0.002268 1.038756 0.194302 -0.000059 -5.835322 -0.735216 0.223526 9.079064 0.352070 0.363419 -15.415638 -61.623135 -18.246121 -10.558136 -115.616361 3.389645 0.000000 0.000002 -0.000001 14.515877 -6.282547 -0.077819 0.000004 0.000002 -2.999997 -5.000177 -7.998712 0.000153 -20.761632 55.682178 24.595793 -8.334555 121.343597 -6.984685 0.000000 0.000000 0.000000 19.480483 1.647504 0.275059 0.000002 -0.000007 2.999980 -5.000345 7.999678 -0.000048 -12.062444 -175.294729 -0.151223 -179.999991 0.000005 -0.963994 165.630079 0.074590 -0.900885 -0.000001 -0.000002 -0.013809 66.605081 6.823480 2.454361 25.456959 -7.355617 -0.000000 -11.072088 173.002353 -0.764448 -0.000005 -0.000004 -1.001220 -17.711193 -1.526325 0.881468 -0.000001 0.000002 -0.183617 68.772642 -6.800238 -2.383057 25.456947 7.355614 -0.000001 
47.627102 -1.438324 93.744003 5.986112 -0.556588 -1.899678 -2.309243 0.093258 -0.004924 -0.615670 0.186635 -0.006998 1.029406 0.186533 -0.009232 -5.929623 -0.801732 0.226208 9.081388 0.366152 0.382500 -15.508979 -61.602740 -18.354998 -10.632624 -115.678420 3.287852 0.000000 0.000003 -0.000001 14.525523 -6.285522 -0.077300 0.000002 0.000001 -3.000003 -5.000179 -7.998713 0.000153 -20.790604 55.590514 24.632563 -8.430302 121.392092 -6.843517 -0.000000 0.000000 -0.000001 19.454206 1.660594 0.273101 0.000001 -0.000006 2.999980 -5.000343 7.999677 -0.000049 -12.130640 -175.348742 -0.163277 -179.999991 0.000005 -0.962997 165.612594 0.042615 -0.904063 -0.000001 -0.000002 -0.012365 66.589611 6.823427 2.455211 25.456959 -7.355615 -0.000000 -11.201393 172.948518 -0.768588 -0.000005 -0.000004 -0.999917 -17.806189 -1.521480 0.884225 -0.000000 0.000003 -0.186354 68.794895 -6.800340 -2.382707 25.456953 7.355613 -0.000001 
